inDegrees=yes
name=ik_lifting_orientations
DataType=double
version=3
OpenSimVersion=4.5-2024-01-10-34fd6af
endheader
time	pelvis_tilt	pelvis_list	pelvis_rotation	pelvis_tx	pelvis_ty	pelvis_tz	hip_flexion_r	hip_adduction_r	hip_rotation_r	knee_angle_r	knee_angle_r_beta	ankle_angle_r	subtalar_angle_r	mtp_angle_r	hip_flexion_l	hip_adduction_l	hip_rotation_l	knee_angle_l	knee_angle_l_beta	ankle_angle_l	subtalar_angle_l	mtp_angle_l	lumbar_extension	lumbar_bending	lumbar_rotation	arm_flex_r	arm_add_r	arm_rot_r	elbow_flex_r	pro_sup_r	wrist_flex_r	wrist_dev_r	arm_flex_l	arm_add_l	arm_rot_l	elbow_flex_l	pro_sup_l	wrist_flex_l	wrist_dev_l
2.25	0.008631000614645588	0.006325403177400734	-175.626225699923	0	0.9400000003403366	0	28.54291181229283	-9.448451599401098	0	39.28933205362549	0.68572820524511	-4.876047451032388	0	0	28.54291181229283	-9.448451599401098	0	39.28933205362549	0.68572820524511	-4.876047451032388	0	0	0.01018876207605186	0.006189135667240663	0.004494022115515885	115.4075093102031	13.43324059483469	17.96345727062134	0.0332002419146913	-27.85091637121679	0	0	0	-5.501235511701482	0	52.94893485334156	27.8507059916136	0	0
2.26	0.01009290570850616	0.01098433307282044	-175.6201652877019	0	0.9400000003403366	0	28.54707033510577	-9.448916382341833	0	39.29376070341596	0.6858054997653715	-4.876183739021847	0	0	28.54707033510577	-9.448916382341833	0	39.29376070341596	0.6858054997653715	-4.876183739021847	0	0	0.01410097889538931	0.01533356458622589	0.001380561086375967	115.5384009163625	12.96502759287739	17.63858434560252	0.03655435533411037	-27.84576762219599	0	0	0	-5.502413564229502	0	52.95473898152822	27.84555724261611	0	0
2.27	0.006341241955511968	0.009857125854216664	-175.6163310008407	0	0.9400000003403366	0	28.55088611706188	-9.449342663671413	0	39.29782406036936	0.6858764187228922	-4.876308707999375	0	0	28.55088611706188	-9.449342663671413	0	39.29782406036936	0.6858764187228922	-4.876308707999375	0	0	0.01014679197895957	0.01626773793713105	-0.003890844944627568	115.5236187388649	12.57846150745422	17.43115893480758	0.0407670227102334	-27.84104309744381	0	0	0	-5.503494600567524	0	52.96006460230859	27.8408327178853	0	0
2.28	0.004841315586546617	0.009128907115087275	-175.6194160378147	0	0.9400000003403366	0	28.55402203777444	-9.449692788151708	0	39.30116361079223	0.6859347048733077	-4.876411324770769	0	0	28.55402203777444	-9.449692788151708	0	39.30116361079223	0.6859347048733077	-4.876411324770769	0	0	0.008086861336606023	0.0185724034750691	-0.003299372558593476	115.4615993835217	12.38136432975502	17.27002509880549	0.04690885120788257	-27.83716010280201	0	0	0	-5.50438317858966	0	52.96444120006134	27.83694972326107	0	0
2.29	0.00701129642045844	-0.0007889086494655442	-175.6276640193631	0	0.9400000003403366	0	28.55710082224392	-9.450036607219408	0	39.30444058932972	0.685991898938304	-4.876512085280622	0	0	28.55710082224392	-9.450036607219408	0	39.30444058932972	0.685991898938304	-4.876512085280622	0	0	0.003819554583938354	-0.005774922158009788	0.006581289071723583	115.3644422512057	12.45284828474392	17.31373482916803	0.0553866447110125	-27.83334835741208	0	0	0	-5.505255217877306	0	52.96873817106302	27.83313797788839	0	0
2.3	0.0007101255965250245	0.001428254905322529	-175.622456232788	0	0.9400000003403366	0	28.55976217264821	-9.45033357559689	0	39.3072740670335	0.6860413524535169	-4.876599092540764	0	0	28.55976217264821	-9.45033357559689	0	39.3072740670335	0.6860413524535169	-4.876599092540764	0	0	0.002191012705608357	0.007675919282735249	0.005880948967461682	115.2706236486403	12.40481647383468	17.2272641516325	0.06737399067448417	-27.83005299201478	0	0	0	-5.506009306204543	0	52.9724523437838	27.82984261250601	0	0
2.31	0.002773089579555781	0.008162197059734595	-175.6166181121097	0	0.9400000003403366	0	28.56234407025538	-9.450621326996382	0	39.31002480366856	0.6860893618646539	-4.876683371570911	0	0	28.56234407025538	-9.450621326996382	0	39.31002480366856	0.6860893618646539	-4.876683371570911	0	0	0.008078734878462434	0.02200837935664572	-0.007191975120621274	115.2252175985008	12.1954456903702	17.11202752044297	0.09542865557076768	-27.82685520054291	0	0	0	-5.50674141995353	0	52.9760553139585	27.8266448210486	0	0
2.32	0.001508353925701071	0.001590409786702693	-175.6206326821877	0	0.9400000003403366	0	28.5676120936402	-9.45120890952235	0	39.3156324994407	0.6861872346193278	-4.876855479942856	0	0	28.5676120936402	-9.45120890952235	0	39.3156324994407	0.6861872346193278	-4.876855479942856	0	0	0.005135505283578533	0.001987088547817426	0.001760282851482005	115.2090698974736	11.74271083019298	16.79236350700363	0.1684254798393101	-27.82033209221912	0	0	0	-5.508234182256578	0	52.98340713094319	27.82012171275431	0	0
2.33	0.00634246461936224	0.0006427767132084335	-175.6199101583399	0	0.9400000003403366	0	28.5722122830536	-9.45172125798276	0	39.32053227680687	0.6862727518669823	-4.877005482572514	0	0	28.5722122830536	-9.45172125798276	0	39.32053227680687	0.6862727518669823	-4.877005482572514	0	0	0.00553439724364035	-0.0003192052709982322	0.003896021474311783	115.1536308336625	11.14431002076272	16.42361243782117	0.4331331771953761	-27.81463444735552	0	0	0	-5.509538682368586	0	52.98982630540323	27.81442406791646	0	0
2.34	-0.007681685455617531	-0.001936482625235503	-175.6130303656597	0	0.9400000003403366	0	28.57662794260743	-9.452212312125758	0	39.32523852955176	0.6863548914728116	-4.877149182651772	0	0	28.57662794260743	-9.452212312125758	0	39.32523852955176	0.6863548914728116	-4.877149182651772	0	0	-0.0266979911345204	-0.002517941341864415	-0.01986730496706928	114.8942684242979	10.27222083177147	16.01374032817321	1.174135260795087	-27.80916387520938	0	0	0	-5.510791827817245	0	52.99598734869029	27.80895349579502	0	0
2.35	-0.01779202202808346	-0.01136649993594225	-175.6131011454347	0	0.9400000003403366	0	28.5818736989583	-9.45279526997118	0	39.33082959134711	0.686452473909823	-4.877319723079697	0	0	28.5818736989583	-9.45279526997118	0	39.33082959134711	0.686452473909823	-4.877319723079697	0	0	-0.01964275699901481	-0.01061132547994872	-0.00960673544796917	114.308367622844	9.442983324890188	15.75025947161765	2.023681978643336	-27.80266444527301	0	0	0	-5.512280839737754	0	53.00330628721053	27.80245406588804	0	0
